<svg xmlns="http://www.w3.org/2000/svg"><defs><font id="Spectral" horiz-adv-x="594"><font-face font-family="Spectral Medium" panose-1="2 2 6 2 6 0 0 0 0 0" ascent="1059" descent="-463" alphabetic="0"/><glyph glyph-name="uni0020" horiz-adv-x="250"/><glyph unicode="!" glyph-name="uni0021" horiz-adv-x="254" d="M116 204L67 660h121l-49-456h-23zM127-5q-26 0-45 19T63 59q0 26 19 45t45 19q25 0 44-19t20-45q0-25-19-44T127-5z"/><glyph unicode="&quot;" glyph-name="uni0022" horiz-adv-x="450" d="M114 490L79 740h92l-35-250h-22zm200 0l-35 250h92l-35-250h-22z"/><glyph unicode="#" glyph-name="uni0023" horiz-adv-x="514" d="M47 0l59 203H8v47h112l44 153H66v47h112l61 210h50l-61-210h130l61 210h50l-61-210h98v-47H394l-44-153h98v-47H336L277 0h-50l59 203H156L97 0H47zm123 250h130l44 153H214l-44-153z"/><glyph unicode="$" glyph-name="uni0024" horiz-adv-x="514" d="M195-80v77q-29 7-55 20t-40 26Q75 64 63 90t-12 50q0 20 13 26t26 6h31l5-4v-27q0-31 17-56t52-38v263q-75 35-106 75t-32 99q0 36 18 69t50 61 70 42v84h36v-74q19 4 37 4 12 0 24-1v71h36v-76q45-9 72-32 50-44 50-90 0-20-13-26t-26-7h-32l-5 4v27q0 51-46 71V364q76-39 107-79t32-103q0-66-39-112T328 3v-83h-36v74q-22-4-44-4-8 0-17 1v-71h-36zm89 465l8-4v239q-12 1-25 1-19 0-36-4V411q22-12 53-26zM149 521q0-27 9-47t37-41v169q-46-28-46-81zM249 38q23 0 43 5v220q-24 14-61 31V39q9-1 18-1zm130 110q0 30-10 51t-41 43V57q24 14 37 37t14 54z"/><glyph unicode="%" glyph-name="uni0025" horiz-adv-x="760" d="M176 345q-68 0-107 55T30 548q0 57 19 103t52 72 75 27q68 0 107-55t39-148q0-56-19-102t-52-73-75-27zm6 27q18 0 30 23t17 60 6 77q0 51-6 94t-22 70-38 27q-17 0-29-23t-17-59-6-77q0-52 7-95t21-70 37-27zM147 15l467 735 38-25L186-10l-39 25zm456-25q-68 0-107 55t-39 148q0 57 19 103t52 72 75 27q68 0 107-55t39-148q0-56-19-102t-52-73-75-27zm6 27q18 0 30 23t17 60 6 77q0 51-6 94t-22 70-38 27q-17 0-29-23t-17-59-6-77q0-52 7-95t21-70 37-27z"/><glyph unicode="&amp;" glyph-name="uni0026" horiz-adv-x="712" d="M221-10q-89 0-143 46T24 162q0 49 33 96t107 94q-34 36-52 61t-24 48-7 50q0 39 24 75t66 60 98 24q80 0 125-36t46-94q0-45-41-81t-121-78q7-8 16-17t18-18l158-158q27 42 51 95t46 119l-98 39v16h240v-16l-86-37q-31-70-62-131t-65-111L606 52l83-36V0H513l-82 82q-43-44-94-68T221-10zm-42 546q0-34 18-62t56-69q43 32 66 62t24 72q0 38-22 62t-60 24q-35 0-58-24t-24-65zm-53-346q0-64 40-99t97-35q77 0 140 54L253 261q-19 18-35 34t-30 31q-41-35-51-64t-11-72z"/><glyph unicode="'" glyph-name="uni0027" horiz-adv-x="250" d="M114 490L79 740h92l-35-250h-22z"/><glyph unicode="(" glyph-name="uni0028" horiz-adv-x="253" d="M224-150Q143-52 99 59T54 295q0 124 44 235t126 210h22v-3q-60-96-92-200t-32-242q0-91 14-167t42-143 68-132v-3h-22z"/><glyph unicode=")" glyph-name="uni0029" horiz-adv-x="253" d="M7-150v3Q47-82 74-15t42 143 15 167q0 137-32 241T7 737v3h22q81-98 125-209t45-236q0-124-44-235T29-150H7z"/><glyph unicode="*" glyph-name="uni002A" horiz-adv-x="361" d="M59 469l102 105-142 24 21 63 129-63-20 142h64l-21-142 129 63 21-63-142-24 103-105-56-38-66 125-67-125-55 38z"/><glyph unicode="+" glyph-name="uni002B" horiz-adv-x="514" d="M230 62v184H47v52h183v184h54V298h183v-52H284V62h-54z"/><glyph unicode="," glyph-name="uni002C" horiz-adv-x="254" d="M60-207v23q44 23 62 51t19 59q0 28-13 47T91 5L57 23l-4 10 32 55q7 11 12 16t13 6q8 0 25-9 33-19 51-52t18-71q0-53-33-101T60-207z"/><glyph unicode="-" glyph-name="uni002D" horiz-adv-x="374" d="M49 222v70h275v-70H49z"/><glyph unicode="." glyph-name="uni002E" horiz-adv-x="254" d="M127-5q-26 0-45 19T63 59q0 26 19 45t45 19q26 0 45-19t19-45q0-26-19-45T127-5z"/><glyph unicode="/" glyph-name="uni002F" horiz-adv-x="250" d="M0-120l200 870h50L50-120H0z"/><glyph unicode="0" glyph-name="uni0030" horiz-adv-x="514" d="M257-10q-71 0-121 41T60 148 33 330q0 98 28 174t79 121 117 45q71 0 121-41t77-117 27-182q0-98-29-174T374 35 257-10zm20 47q31 0 53 34t33 93 12 135q0 97-14 170t-45 113-75 41q-33 0-55-33t-34-92-12-135q0-98 15-171t45-114 77-41z"/><glyph unicode="1" glyph-name="uni0031" horiz-adv-x="514" d="M152 0v16l91 39v504L70 474v36l242 150h30V55l82-39V0H152z"/><glyph unicode="2" glyph-name="uni0032" horiz-adv-x="514" d="M52 0v28q85 97 140 162t87 110 46 75 19 58 4 62q0 58-29 92t-76 35q-105 0-105-111v-45l-6-8H81q-20 0-30 7t-10 35q0 27 16 54t50 53q27 19 50 33t52 22 68 8q53 0 94-24t64-64 24-89q0-33-7-60t-27-56-52-67-84-91T165 89h243l52 98h16L466 0H52z"/><glyph unicode="3" glyph-name="uni0033" horiz-adv-x="514" d="M249-10q-47 0-86 11T92 36Q64 56 49 77t-15 44q0 23 9 28t28 6h50l8-8v-33q0-34 29-56t90-22q62 0 95 38t34 98q0 68-36 107t-128 40h-58v45h33q68 0 111 38t44 104q0 62-26 90t-75 28q-41 0-67-24t-27-65v-38l-8-8H92q-20 0-29 6t-10 30q0 26 17 52t53 48q36 23 68 34t77 11q53 0 95-20t66-56 25-82q0-53-42-95t-112-59q94-13 141-60t48-121q0-51-33-93t-87-68-120-26z"/><glyph unicode="4" glyph-name="uni0034" horiz-adv-x="514" d="M192 0v16l91 39v134H10v22l343 449h30V259h119v-70H383V55l81-39V0H192zm-86 259h177v240L106 259z"/><glyph unicode="5" glyph-name="uni0035" horiz-adv-x="514" d="M202-10q-50 0-86 12T64 39q-8 11-8 20 0 13 18 27l39 30h11l10-19q15-25 40-42t66-17q58 0 97 41t40 111q0 42-17 77t-60 57-117 22q-41 0-96-9v323h327v-83H136V432q32 2 63 2 97 0 155-29t85-76 26-98q0-73-34-127t-93-84-136-30z"/><glyph unicode="6" glyph-name="uni0036" horiz-adv-x="514" d="M262-10q-68 0-119 32t-79 87-28 127q0 106 48 192t136 148 210 94v-30q-121-38-192-125t-88-205q27 36 67 57t91 22q54 0 93-25t62-68 22-98q0-52-24-100t-75-78-124-30zM146 243q0-108 34-157t84-49q38 0 63 20t38 52 13 66q0 71-29 108t-87 38q-37 0-67-17t-49-47v-14z"/><glyph unicode="7" glyph-name="uni0037" horiz-adv-x="514" d="M89 0q21 49 40 91t42 88 52 99 70 125 96 168H53v89h419v-24q-36-69-75-148t-77-162-67-165T208 0H89z"/><glyph unicode="8" glyph-name="uni0038" horiz-adv-x="514" d="M258-10q-58 0-107 19T71 63t-30 83q0 31 11 60t40 59 83 61q-65 40-90 78t-26 93q0 47 29 86t75 63 98 24q53 0 97-21t71-59 26-86q0-41-34-76t-94-67q75-44 110-85t36-102q0-59-32-100t-82-63-101-21zM158 532q0-27 9-49t38-46 81-53q36 21 56 49t20 65q0 64-30 95t-79 31q-41 0-68-24t-27-68zm-20-365q0-63 34-98t88-36q56 0 86 28t31 79q0 38-19 64t-56 48-91 53q-46-33-59-64t-14-74z"/><glyph unicode="9" glyph-name="uni0039" horiz-adv-x="514" d="M85-10v30q121 38 192 125t88 205q-27-36-67-57t-91-22q-54 0-93 25t-62 68-22 98q0 52 25 100t74 78 125 30q68 0 118-32t79-87 28-127q0-106-48-192T295 84 85-10zm52 495q0-71 29-108t87-38q37 0 67 17t49 46v15q0 108-34 157t-84 49q-39 0-64-20t-37-52-13-66z"/><glyph unicode=":" glyph-name="uni003A" horiz-adv-x="254" d="M127-5q-26 0-45 19T63 59q0 26 19 45t45 19q26 0 45-19t19-45q0-26-19-45T127-5zm0 337q-26 0-45 19t-19 45q0 26 19 45t45 19q26 0 45-19t19-45q0-26-19-45t-45-19z"/><glyph unicode=";" glyph-name="uni003B" horiz-adv-x="254" d="M127 332q-26 0-45 19t-19 45q0 26 19 45t45 19q26 0 45-19t19-45q0-26-19-45t-45-19zM60-207v23q44 23 62 51t19 59q0 28-13 47T91 5L57 23l-4 10 32 55q7 11 12 16t13 6q8 0 25-9 33-19 51-52t18-71q0-53-33-101T60-207z"/><glyph unicode="&lt;" glyph-name="uni003C" horiz-adv-x="514" d="M467 62L47 247v50l420 185v-56L118 272l349-154V62z"/><glyph unicode="=" glyph-name="uni003D" horiz-adv-x="514" d="M47 348v52h420v-52H47zm0-204v52h420v-52H47z"/><glyph unicode="&gt;" glyph-name="uni003E" horiz-adv-x="514" d="M47 62v56l349 154L47 426v56l420-185v-50L47 62z"/><glyph unicode="?" glyph-name="uni003F" horiz-adv-x="479" d="M199 204l-28 149q76 23 117 58t41 85q0 68-31 99t-79 31q-41 0-64-27t-23-81v-38l-8-11H75q-19 0-28 7t-9 33q0 28 15 54t46 49q35 25 66 41t81 17q54 0 95-23t64-64 23-90q0-66-46-118t-151-94l-9-77h-23zM210-5q-26 0-45 19t-19 45q0 26 19 45t45 19q26 0 45-19t19-45q0-25-19-44T210-5z"/><glyph unicode="@" glyph-name="uni0040" horiz-adv-x="812" d="M374-118q-91 0-160 35T106 17 67 167q0 80 30 151t85 127 126 86 154 31q86 0 150-36t98-99 35-143q0-68-28-128t-77-98-115-37q-85 0-69 93l3 19q-37-58-73-85t-75-27q-35 0-58 29t-23 89q0 55 18 107t51 93 73 66 85 24q22 0 42-5t35-15l34 19h23l-53-295q-8-43-3-57t28-14q35 0 67 31t52 81 20 107q0 71-32 128t-92 92-138 34q-70 0-127-27t-98-75-63-111-22-136q0-87 34-148t96-95 141-33q65 0 114 16t94 47l9-21q-52-33-110-51t-134-19zm-64 294q0-52 10-72t39-20q23 0 51 22t56 64l32 184q-13 17-28 28t-40 12q-33 0-60-30t-44-79-16-109z"/><glyph unicode="A" glyph-name="uni0041" horiz-adv-x="756" d="M30 0v16l63 33 257 616h55L659 52l67-36V0H462v16l88 35-74 180H235L162 50l84-34V0H30zm228 286h196l-98 241-98-241z"/><glyph unicode="B" glyph-name="uni0042" horiz-adv-x="669" d="M60 0v16l81 40v548l-81 40v16h269q67 0 120-16t84-49 31-83q0-51-35-93t-101-61q91-12 142-55t52-111q0-55-35-98t-96-69T352 0H60zm240 605h-54V367h59q71 0 110 31t39 85q0 122-154 122zm37-291h-91V55h98q77 0 121 36t45 94q0 67-45 98t-128 31z"/><glyph unicode="C" glyph-name="uni0043" horiz-adv-x="722" d="M400-10q-103 0-178 42T106 147 65 313q0 72 28 136t76 114 112 78 134 29q51 0 86-6t62-17 56-25l6-178h-18l-69 130q-34 24-61 35t-62 11q-69 0-124-36t-86-99-32-147q0-93 30-159t83-102 115-35q52 0 87 14t64 33l67 112h17L624 40q-44-22-94-36T400-10z"/><glyph unicode="D" glyph-name="uni0044" horiz-adv-x="781" d="M60 0v16l81 40v548l-81 40v16h304q112 0 191-39t120-107 42-154q0-78-27-144t-75-114-114-75T357 0H60zm277 605h-91V55h106q80 0 137 33t88 95 31 146q0 83-31 145t-92 97-148 34z"/><glyph unicode="E" glyph-name="uni0045" horiz-adv-x="659" d="M60 0v16l81 40v548l-81 40v16h502V488h-16l-65 117H246V368h166l51 84h16V231h-16l-51 82H246V55h262l66 132h16V0H60z"/><glyph unicode="F" glyph-name="uni0046" horiz-adv-x="618" d="M60 0v16l81 40v548l-81 40v16h492V488h-16l-63 117H246V367h156l51 84h16V232h-16l-51 82H246V56l92-40V0H60z"/><glyph unicode="G" glyph-name="uni0047" horiz-adv-x="765" d="M401-10q-72 0-133 24T161 81 91 184 65 313q0 77 28 142t79 113 115 75 139 27q53 0 90-6t66-17 58-25l6-168h-16l-72 120q-39 26-67 36t-65 10q-74 0-132-34t-91-94-33-137q0-97 35-166t93-105 132-37q29 0 57 3t58 14v171l-89 41v16h264v-16l-70-44V74q-30-26-72-44T490 1t-89-11z"/><glyph unicode="H" glyph-name="uni0048" horiz-adv-x="816" d="M60 0v16l81 40v548l-81 40v16h265v-16l-79-40V368h325v236l-80 40v16h265v-16l-81-40V56l81-40V0H491v16l80 40v257H246V56l79-40V0H60z"/><glyph unicode="I" glyph-name="uni0049" horiz-adv-x="395" d="M64 0v16l82 40v548l-82 40v16h267v-16l-81-40V56l81-40V0H64z"/><glyph unicode="J" glyph-name="uni004A" horiz-adv-x="400" d="M49-173q-13 0-23 6t-10 22q0 4 2 14t9 45h6q17-4 27-6t23-3q21 0 36 9t23 41 8 96v553l-81 40v16h267v-16l-82-40V241q0-113-22-202T166-97q-28-31-46-47t-34-22-37-7z"/><glyph unicode="K" glyph-name="uni004B" horiz-adv-x="732" d="M60 0v16l81 40v548l-81 40v16h267v-16l-81-40V56l81-40V0H60zm186 337l276 273-71 34v16h216v-16l-63-25-256-251L656 43l63-27V0H556L246 337z"/><glyph unicode="L" glyph-name="uni004C" horiz-adv-x="636" d="M60 0v16l81 40v548l-81 40v16h277v-16l-91-40V55h237l71 172h16V0H60z"/><glyph unicode="M" glyph-name="uni004D" horiz-adv-x="968" d="M56 0v16l80 40 21 548-86 40v16h199l224-517 223 517h191v-16l-85-37 17-551 72-40V0H665v16l75 39-10 489L494-5h-48L212 538 199 55l83-39V0H56z"/><glyph unicode="N" glyph-name="uni004E" horiz-adv-x="803" d="M56 0v16l81 40v546l-80 42v16h157l383-471v416l-103 39v16h253v-16l-80-39V-5h-43L207 507V55l103-39V0H56z"/><glyph unicode="O" glyph-name="uni004F" horiz-adv-x="803" d="M401-10q-72 0-133 25T161 86 90 194 65 330q0 74 25 136t70 107 107 71 134 26q72 0 133-25t107-71 71-108 26-136q0-74-25-136T642 87 535 16 401-10zm20 50q61 0 107 32t72 90 26 137q0 97-32 169t-87 113-122 40q-61 0-108-31t-73-90-27-137q0-97 32-170t88-113 124-40z"/><glyph unicode="P" glyph-name="uni0050" horiz-adv-x="649" d="M60 0v16l81 40v548l-81 40v16h280q118 0 189-43t72-136q0-55-37-97t-102-67-146-25h-70V56l92-40V0H60zm186 605V345h76q79 0 124 36t45 92q0 70-45 101t-131 31h-69z"/><glyph unicode="Q" glyph-name="uni0051" horiz-adv-x="803" d="M683-150q-41 0-85 10t-99 41T369-9q-88 8-157 53T104 163 65 330q0 74 25 136t70 107 107 71 134 26q72 0 133-25t107-71 71-108 26-136q0-80-30-146T625 71 502 4q56-45 98-71t76-37 68-11q21 0 37 2t27 7v-17q-22-12-54-19t-71-8zM421 40q61 0 107 32t72 90 26 137q0 97-32 169t-87 113-122 40q-61 0-108-31t-73-90-27-137q0-97 32-170t88-113 124-40z"/><glyph unicode="R" glyph-name="uni0052" horiz-adv-x="677" d="M60 0v16l81 40v548l-81 40v16h278q105 0 165-43t61-120q0-56-38-99t-100-66L615 53l67-37V0H521L329 304h-83V57l75-41V0H60zm245 605h-59V357h65q62 0 102 35t41 91q0 57-39 89t-110 33z"/><glyph unicode="S" glyph-name="uni0053" horiz-adv-x="541" d="M266-10q-63 0-107 12T67 37L57 202h16l53-109q35-29 69-42t68-13q58 0 91 30t34 82q0 41-18 65t-55 44-90 46q-71 34-109 71T78 482q0 36 17 69t48 60 67 43 77 16q47 0 88-11t81-32l10-160h-16l-52 107q-32 25-58 36t-59 11q-43 0-71-29t-29-73q0-49 30-77t99-60q60-29 99-55t59-60 19-84q0-47-20-83t-53-60-71-37-77-13z"/><glyph unicode="T" glyph-name="uni0054" horiz-adv-x="680" d="M187 0v16l101 40v549H130L59 454H43v206h594V454h-16l-70 151H392V56l102-40V0H187z"/><glyph unicode="U" glyph-name="uni0055" horiz-adv-x="816" d="M409-10q-77 0-138 28t-95 88-35 157v341l-81 40v16h267v-16l-81-40V274q0-83 26-131t70-70 99-21q44 0 81 18t60 60 23 109v367l-98 38v16h249v-16l-81-39V263q0-97-34-157t-95-88-137-28z"/><glyph unicode="V" glyph-name="uni0056" horiz-adv-x="746" d="M356-5L100 608l-69 36v16h265v-16l-87-38 187-450h5l185 453-83 35v16h211v-16l-57-31L396-5h-40z"/><glyph unicode="W" glyph-name="uni0057" horiz-adv-x="995" d="M276-5L90 607l-76 37v16h269v-16l-85-37 122-422h6l173 480h42l176-480h6l121 421-85 38v16h222v-16l-67-36L726-5h-41L505 474h-7L316-5h-40z"/><glyph unicode="X" glyph-name="uni0058" horiz-adv-x="749" d="M33 0v16l73 37 213 272-208 283-64 36v16h269v-16l-80-38v-5l155-206 162 207v4l-77 38v16h216v-16l-64-36-203-258L646 55l71-39V0H443v16l73 36v4L352 280 181 57v-4l80-37V0H33z"/><glyph unicode="Y" glyph-name="uni0059" horiz-adv-x="727" d="M225 0v16l90 40v252L94 609l-63 35v16h258v-16l-73-36v-4l177-241 160 240v4l-74 37v16h216v-16l-65-33-211-302V56l90-40V0H225z"/><glyph unicode="Z" glyph-name="uni005A" horiz-adv-x="659" d="M89 0v27l341 578H181l-64-132h-16v187h458v-27L217 55h271l66 142h16V0H89z"/><glyph unicode="[" glyph-name="uni005B" horiz-adv-x="253" d="M64-150v890h181v-24H129v-842h116v-24H64z"/><glyph unicode="\" glyph-name="uni005C" horiz-adv-x="250" d="M200-120L0 750h50l200-870h-50z"/><glyph unicode="]" glyph-name="uni005D" horiz-adv-x="253" d="M8-150v24h116v842H8v24h181v-890H8z"/><glyph unicode="^" glyph-name="uni005E" horiz-adv-x="514" d="M47 250l185 420h50l185-420h-56L258 598 104 250H47z"/><glyph unicode="_" glyph-name="uni005F" horiz-adv-x="500" d="M25-140v50h450v-50H25z"/><glyph unicode="`" glyph-name="uni0060" horiz-adv-x="500" d="M323 530L197 643q-21 18-28 33t-7 31h89l86-177h-14z"/><glyph unicode="a" glyph-name="uni0061" horiz-adv-x="495" d="M155-10q-48 0-79 28T44 97q0 49 35 84t124 57l95 22v70q0 36-26 60t-62 24q-37 0-51-19t-15-52v-32l-5-5H84q-15 0-20 5t-6 24q0 22 13 44t42 40q30 19 61 30t66 12q38 0 73-10t58-36 22-67V69q7-7 19-12t35-5h35l4-2v-6q-12-21-36-37t-60-17q-34 0-55 16t-30 46h-7q-26-26-63-44t-80-18zm-20 129q0-62 73-62 22 0 42 4t48 16v148q-72-14-107-30t-45-34-11-42z"/><glyph unicode="b" glyph-name="uni0062" horiz-adv-x="565" d="M100-9v645l-61 51v8l148 55h7V400h4q38 32 73 46t76 15q49 0 88-26t62-73 23-115q0-81-31-138t-85-88-119-31q-42 0-78 7t-67 22L107-9h-7zm186 398q-48 0-92-27V78q25-21 51-30t58-9q33 0 60 18t45 58 17 108q0 57-19 94t-50 54-70 18z"/><glyph unicode="c" glyph-name="uni0063" horiz-adv-x="480" d="M258-10q-97 0-154 59T47 206q0 74 30 132t84 90 121 33q42 0 80-13t58-36q15-18 15-30 0-8-2-12t-10-12l-41-33h-7l-34 46q-15 21-36 33t-53 13q-53 0-83-44t-30-121q0-47 15-88t52-66 100-25q28 0 60 9t68 29h3V99q-23-46-70-77T258-10z"/><glyph unicode="d" glyph-name="uni0064" horiz-adv-x="565" d="M214-10q-49 0-88 25T64 85 41 194q0 85 32 144t87 91 121 32q27 0 48-2t38-7v184l-66 51v8l153 55h7V45l71-29V0H377l-9 51h-6q-38-32-73-46t-75-15zm-78 229q0-82 41-119t98-38q48 0 92 28v282q-22 19-43 29t-50 11q-38 0-69-18t-50-61-19-114z"/><glyph unicode="e" glyph-name="uni0065" horiz-adv-x="487" d="M259-10q-98 0-155 59T47 206q0 74 30 132t81 90 110 33q80 0 125-54t46-157l-5-5H139q1-46 17-85t53-63 99-24q57 0 129 38h3V99q-24-46-71-77T259-10zm-9 427q-44 0-72-33t-37-93h213q-10 68-36 97t-68 29z"/><glyph unicode="f" glyph-name="uni0066" horiz-adv-x="349" d="M50 0v16l64 32v357H36v46h78v38q0 22 11 54t33 69 50 67 66 51 78 20q9 0 19-3t18-6q29-13 29-28 0-6-5-18l-21-50h-8l-25 10q-29 13-64 13-53 0-70-34t-17-107v-76h129v-46H208V46l73-30V0H50z"/><glyph unicode="g" glyph-name="uni0067" horiz-adv-x="545" d="M258 144q-45 0-83 16-18-8-25-20t-8-26q0-50 72-50h118q74 0 109-32t36-97q0-43-29-83t-84-66-128-26q-95 0-137 33t-42 83q0 36 18 64l68 44v5q-38 8-58 30T65 75q0 39 27 66l54 29v6q-32 21-50 54t-19 73q0 45 23 81t65 56 93 21q23 0 48-5t44-14l150 9v-55l-95 6-4-4q17-17 27-43t11-52q0-45-24-81t-64-57-93-21zm9 42q38 0 59 33t22 81q0 56-28 88t-68 33q-41 0-62-33t-22-82q0-53 27-86t72-34zM131-111q0-43 33-71t84-28q44 0 76 17t51 44 19 57q0 43-23 59t-81 17H178q-26-15-36-38t-11-57z"/><glyph unicode="h" glyph-name="uni0068" horiz-adv-x="590" d="M44 0v16l64 32v588l-61 51v8l148 55h7V387h4q38 37 73 55t79 19q58 0 96-29t39-89V48l63-32V0H332v16l66 29v252q0 43-26 64t-67 22q-25 0-55-8t-48-25V45l66-29V0H44z"/><glyph unicode="i" glyph-name="uni0069" horiz-adv-x="318" d="M157 577q-27 0-45 18t-18 45q0 28 18 45t45 18q27 0 45-17t18-46q0-27-18-45t-45-18zM49 0v16l64 32v299l-61 51v8l148 55h7V48l62-32V0H49z"/><glyph unicode="j" glyph-name="uni006A" horiz-adv-x="318" d="M157 577q-28 0-45 18t-18 45q0 28 17 45t46 18q27 0 45-17t18-46q0-27-18-45t-45-18zM50-230v17q24 21 37 45t20 59 6 88v368l-61 51v8l147 55h8V6q0-80-33-136T50-230z"/><glyph unicode="k" glyph-name="uni006B" horiz-adv-x="569" d="M44 0v16l64 32v588l-61 51v8l148 55h7V257l159 136v6l-49 36v16h195v-16l-64-35-159-122L482 50l64-34V0H399l-36 52-161 188V45l70-29V0H44z"/><glyph unicode="l" glyph-name="uni006C" horiz-adv-x="301" d="M41 0v16l63 32v588l-60 51v8l147 55h8V48l62-32V0H41z"/><glyph unicode="m" glyph-name="uni006D" horiz-adv-x="870" d="M44 0v16l64 32v299l-61 50v8l138 56h7l9-74h5q37 37 71 55t76 19q48 0 82-21t44-64h4q41 43 77 64t81 21q58 0 94-29t37-89V48l64-32V0H611v16l67 32v249q0 43-25 64t-64 22q-31 0-59-10t-47-31V48l65-32V0H326v16l63 32v249q0 43-24 64t-64 22q-24 0-52-8t-47-25V48l61-32V0H44z"/><glyph unicode="n" glyph-name="uni006E" horiz-adv-x="590" d="M44 0v16l64 32v299l-61 50v8l138 56h7l9-74h5q38 37 73 55t79 19q58 0 96-29t39-89V48l63-32V0H332v16l66 32v249q0 43-26 64t-67 22q-25 0-55-8t-48-25V48l66-32V0H44z"/><glyph unicode="o" glyph-name="uni006F" horiz-adv-x="542" d="M271-10q-67 0-117 31t-79 85-29 120q0 66 28 119t79 85 118 31q67 0 117-31t78-84 29-120q0-66-28-119t-79-85-117-32zm13 44q38 0 62 25t35 64 11 83q0 53-13 101t-43 80-76 31q-38 0-63-24t-36-64-12-83q0-53 14-102t44-80 77-31z"/><glyph unicode="p" glyph-name="uni0070" horiz-adv-x="572" d="M44-230v16l64 32v528l-61 51v8l138 56h7l8-61h7q37 32 72 46t76 15q49 0 88-26t62-73 23-115q0-81-31-138t-83-88-115-31q-54 0-97 10v-182l73-32v-16H44zm250 619q-48 0-92-27V78q26-22 54-30t64-9q30 0 56 17t41 55 16 104q0 61-19 99t-50 56-70 19z"/><glyph unicode="q" glyph-name="uni0071" horiz-adv-x="563" d="M298-230v16l72 29V50h-6q-69-60-147-60-49 0-88 25T68 85 45 194q0 85 32 144t88 91 121 32q35 0 62-5t57-17l52 22h7v-644l64-31v-16H298zM139 219q0-82 41-119t99-38q20 0 44 7t47 21v238q0 34-2 41t-9 15q-19 16-42 22t-48 6q-35 0-65-18t-47-61-18-114z"/><glyph unicode="r" glyph-name="uni0072" horiz-adv-x="404" d="M47 0v16l64 32v298l-61 51v8l138 56h8l9-86h4q23 38 42 56t36 24 35 6q9 0 19-2t18-6q12-5 21-12t9-16q0-9-4-18l-21-53h-7l-35 14q-12 4-23 5t-22 2q-43 0-71-41V48l73-32V0H47z"/><glyph unicode="s" glyph-name="uni0073" horiz-adv-x="433" d="M212-10q-48 0-82 8T60 25v112h15l32-54q33-55 102-55 40 0 61 18t22 50q0 26-13 42t-39 28-62 29q-52 23-79 51t-28 77q0 39 21 70t56 49 72 19q36 0 68-8t63-25V317h-14l-33 52q-33 52-81 52-33 0-53-16t-20-46q0-32 23-49t74-40q29-13 57-27t46-40 19-73q0-46-24-77T284 6t-72-16z"/><glyph unicode="t" glyph-name="uni0074" horiz-adv-x="362" d="M211-10q-48 0-81 26T96 89v316H16v8l87 38 78 110h9V451h133v-46H190V108q0-26 22-38t54-12q19 0 35 2t29 5h3V53q-12-23-43-43t-79-20z"/><glyph unicode="u" glyph-name="uni0075" horiz-adv-x="568" d="M223-10q-59 0-96 30t-38 88v296l-64 31v16h158V154q0-42 25-64t67-22q25 0 55 8t48 26v302l-68 31v16h163V45l69-29V0H378v63h-5q-37-37-72-55t-78-18z"/><glyph unicode="v" glyph-name="uni0076" horiz-adv-x="479" d="M224 0L40 405l-66 30v16h249v-16l-79-29v-6l123-265h4l108 260v5l-70 35v16h196v-16l-73-34L249 0h-25z"/><glyph unicode="w" glyph-name="uni0077" horiz-adv-x="747" d="M199 0L40 405l-66 30v16h249v-16l-79-29v-6l100-264h4l136 315h25l136-312h4l98 256v5l-70 35v16h196v-16l-73-34L531 0h-25L367 313 224 0h-25z"/><glyph unicode="x" glyph-name="uni0078" horiz-adv-x="509" d="M24 0v16l54 34 132 170L75 405l-47 30v16h222v-16l-65-29v-6l89-121 80 115v6l-55 35v16h169v-16l-53-34-119-152L444 46l41-30V0H274v16l59 29v6L232 189 141 57v-6l61-35V0H24z"/><glyph unicode="y" glyph-name="uni0079" horiz-adv-x="479" d="M83-241q-23 0-28 6t-6 23v54l4 5h46q25 0 39 4t26 21 30 59l33 75L40 405l-66 30v16h248v-16l-78-30v-5l128-276h4l105 271v5l-71 35v16h195v-16l-74-33L233-79q-9-23-15-38t-15-30-23-36q-20-29-46-43t-51-15z"/><glyph unicode="z" glyph-name="uni007A" horiz-adv-x="487" d="M66 0v18l222 389H128L82 305H65l11 156h5q13-3 32-6t33-4h263v-18L186 45h175l39 109h17V0H66z"/><glyph unicode="{" glyph-name="uni007B" horiz-adv-x="253" d="M225-150q-83 0-120 37T67-17q0 41 12 77t24 71 12 68q0 34-18 59t-68 26H4v23h25q49 0 67 25t19 59q0 34-12 68t-24 70-12 78q0 59 37 96t121 37h20v-24h-27q-44 0-65-25t-21-66q0-39 11-74t21-69 11-69q0-37-19-66t-68-52q48-23 67-52t20-66q0-35-10-68t-22-69-11-75q0-41 21-66t65-25h27v-24h-20z"/><glyph unicode="|" glyph-name="uni007C" horiz-adv-x="250" d="M100-250V750h50V-250h-50z"/><glyph unicode="}" glyph-name="uni007D" horiz-adv-x="253" d="M28-150H8v24h27q43 0 64 25t22 66q0 39-10 74t-22 69-11 69q0 37 19 66t68 52q-49 23-68 52t-19 66q0 35 11 68t21 69 11 75q0 41-21 66t-65 25H8v24h20q83 0 120-37t38-96q0-41-12-77t-24-71-12-68q0-33 18-58t68-26h25v-23h-25q-49 0-67-25t-19-60q0-34 12-68t24-70 12-78q0-59-37-96T28-150z"/><glyph unicode="~" glyph-name="uni007E" horiz-adv-x="514" d="M47 201q0 67 31 104t83 38q36 0 61-13t46-32 41-31 45-14q32 0 46 21t14 69h53q0-67-30-104t-84-38q-36 0-61 13t-46 32-41 31-45 14q-60 0-60-90H47z"/><glyph glyph-name="uni00A0" horiz-adv-x="250"/><glyph unicode="¡" glyph-name="uni00A1" horiz-adv-x="254" d="M127 333q-25 0-44 19t-20 45q0 25 19 44t45 20q25 0 44-19t20-45q0-25-19-44t-45-20zM67-204l49 456h23l49-456H67z"/><glyph unicode="¢" glyph-name="uni00A2" horiz-adv-x="514" d="M174 26l20 81q-63 20-98 73T60 311q0 75 30 132t84 90 121 33h12l17 69h38l-18-74q28-5 51-16t37-27q16-19 16-30 0-14-13-24l-40-34h-7l-34 46q-12 16-25 26l-76-311q29-9 66-9 28 0 60 9t68 30h3v-25q-29-44-74-72T271 95q-21 0-41 3l-18-72h-38zm-18 331q0-108 63-149l76 309q-13 3-29 3-52 0-81-43t-29-120z"/><glyph unicode="£" glyph-name="uni00A3" horiz-adv-x="514" d="M49 0v44q71 58 98 99t27 78q0 21-9 45t-21 49H45v38h80q-15 30-26 60t-12 59q0 50 25 95t70 74 105 29q55 0 92-17t58-41q16-19 16-30 0-14-13-24l-48-38h-7l-14 26q-22 39-42 57t-56 19q-47 0-70-27t-24-65q0-38 24-84t46-93h155v-38H266q7-17 11-33t5-32q0-43-30-81t-97-80h247l30 97h36L458 0H49z"/><glyph unicode="¤" glyph-name="uni00A4" horiz-adv-x="514" d="M47 99l79 78q-14 20-22 44t-9 51q0 26 8 50t23 45l-79 78 37 37 79-78q43 30 94 30 26 0 50-8t45-22l78 78 37-37-78-78q30-43 30-95t-30-95l78-78-37-37-78 78q-43-30-95-30-26 0-50 8t-44 22L84 62 47 99zm210 59q47 0 78 32t31 82q0 49-31 81t-78 33q-47 0-78-32t-31-82q0-49 31-81t78-33z"/><glyph unicode="¥" glyph-name="uni00A5" horiz-adv-x="514" d="M121 0v16l85 40v183H73v39h133v111H73v38h108L40 624 2 644v16h226v-16l-62-23v-2l120-177 107 172v4l-62 26v16h182v-16l-49-20-135-197h108v-38H306V278h131v-39H306V56l85-40V0H121z"/><glyph unicode="¦" glyph-name="uni00A6" horiz-adv-x="250" d="M100 350v400h50V350h-50zm0-600v400h50v-400h-50z"/><glyph unicode="§" glyph-name="uni00A7" horiz-adv-x="508" d="M196-120q-34 0-64 12T86-80Q69-61 70-50q0 4 3 10t10 12l39 37h6l20-22q17-19 41-36t58-18q38 0 62 21t24 55q0 39-21 60t-56 32-73 20-73 25-56 43-22 79q0 47 28 81t76 54q-17 15-27 39t-11 59q0 45 28 83t76 62 112 24q32 0 55-11t39-25q16-16 16-27-2-9-13-22l-37-34h-5l-19 21q-16 17-37 32t-53 16q-35 0-59-21t-25-54q0-40 21-61t56-32 72-21 72-23 55-40 22-75q0-50-29-86t-82-55q22-15 35-40t13-63q0-33-18-63t-50-54-69-38-78-14zm-83 423q0-38 20-58t52-31 69-19 70-21q29 6 51 27t22 50q0 32-15 50t-40 29-55 16-62 14-58 22q-28-10-41-30t-13-49z"/><glyph unicode="¨" glyph-name="uni00A8" horiz-adv-x="500" d="M156 566q-22 0-36 14t-15 37q0 22 14 36t37 15q22 0 36-14t15-37q0-22-14-36t-37-15zm188 0q-22 0-37 14t-15 37q0 22 15 36t37 15q22 0 36-14t15-37q0-22-14-36t-37-15z"/><glyph unicode="©" glyph-name="uni00A9" horiz-adv-x="806" d="M403-10q-72 0-132 25T165 86 95 194 70 330q0 74 25 136t70 107 105 71 133 26q72 0 132-25t106-71 70-108 25-136q0-74-25-136T641 87 536 16 403-10zm0 37q84 0 150 39t105 108 39 156q0 88-38 156T554 593t-151 40q-84 0-150-39T148 486t-39-156q0-87 38-155T252 67t151-40zm12 102q-63 0-108 25t-69 69-25 101q0 58 29 107t76 79 106 30q45 0 71-9t54-22l4-115h-29l-36 77q-18 12-32 18t-32 6q-58 0-96-43t-38-111q0-78 36-122t90-44q24 0 42 5t37 17l36 69h29l-8-105q-28-14-60-23t-77-9z"/><glyph unicode="ª" glyph-name="uni00AA" horiz-adv-x="403" d="M144 417q-26 0-44 15t-18 45q0 29 18 45t68 30l50 13v33q0 20-12 32t-30 12q-32 0-32-30v-24l-2-2h-37q-14 0-14 16 0 24 33 44 18 11 35 17t38 6q43 0 68-16t25-51V462q9-9 27-9h15l2-2v-7q-6-10-20-18t-36-9q-43 0-57 35h-3q-14-16-33-25t-41-10zm7 74q0-32 36-32 15 0 31 6v78q-41-9-54-21t-13-31zM85 292v50h234v-50H85z"/><glyph unicode="«" glyph-name="uni00AB" horiz-adv-x="439" d="M221 70L21 247l200 177h13L124 247 234 70h-13zm183 0L204 247l200 177h13L307 247 417 70h-13z"/><glyph unicode="¬" glyph-name="uni00AC" horiz-adv-x="514" d="M415 62v184H47v52h420V62h-52z"/><glyph unicode="­" glyph-name="uni00AD" horiz-adv-x="374" d="M49 222v70h275v-70H49z"/><glyph unicode="®" glyph-name="uni00AE" horiz-adv-x="543" d="M271 235q-61 0-109 28t-76 78-28 112q0 61 28 110t76 78 109 29q61 0 109-28t77-78 28-111q0-62-28-111t-76-78-110-29zm0 31q53 0 94 24t63 67 23 96q0 53-22 95t-64 66-94 25q-53 0-93-24t-63-67-23-95q0-53 22-95t63-67 94-25zm-109 62v7l31 16v210l-31 16v6h110q40 0 63-17t24-46q0-22-15-39t-39-27l54-106 26-13v-7h-67l-57 117h-23v-94l30-16v-7H162zm95 232h-19v-92h21q22 0 37 12t15 35q0 23-15 34t-39 11z"/><glyph unicode="¯" glyph-name="uni00AF" horiz-adv-x="500" d="M114 591v52h272v-52H114z"/><glyph unicode="°" glyph-name="uni00B0" horiz-adv-x="500" d="M250 410q-38 0-67 18t-46 47-17 65q0 35 17 64t46 48 67 18q38 0 67-18t46-47 17-65q0-35-17-64t-46-48-67-18zm0 40q36 0 61 24t25 66q0 41-25 65t-61 25q-36 0-61-24t-25-66q0-41 25-65t61-25z"/><glyph unicode="±" glyph-name="uni00B1" horiz-adv-x="514" d="M230 152v134H47v52h183v144h54V338h183v-52H284V152h-54zM47 61v52h420V61H47z"/><glyph unicode="²" glyph-name="uni00B2" horiz-adv-x="322" d="M27 505v21q58 65 92 108t52 73 23 51 6 43q0 28-14 47t-43 20q-26 0-42-18t-16-49v-28l-4-5H40q-10 0-15 4t-5 19q0 38 45 73 20 16 42 26t62 10q55 0 86-29t32-77q0-23-7-43t-27-44-59-58-102-88h167l28 59h15l-6-115H27z"/><glyph unicode="³" glyph-name="uni00B3" horiz-adv-x="325" d="M156 495q-58 0-98 27-16 11-27 24t-11 28q0 16 5 19t17 4h39l5-6v-14q0-25 17-38t45-13q35 0 52 21t17 56q0 41-20 63t-74 22H90v29h14q42 0 67 22t26 65q0 29-13 46t-41 18q-22 0-35-13t-14-40v-24l-5-5H50q-10 0-15 4t-6 21q0 32 38 57 24 16 45 24t53 8q54 0 87-25t33-68q0-36-29-60t-75-34q124-13 124-103 0-49-42-82t-107-33z"/><glyph unicode="´" glyph-name="uni00B4" horiz-adv-x="500" d="M162 530l86 177h89q0-16-7-31t-28-33L176 530h-14z"/><glyph unicode="µ" glyph-name="uni00B5" horiz-adv-x="561" d="M244-10q-26 0-49 7t-45 28l25-235-88-20h-2v681h94V154q0-42 26-64t67-22q25 0 54 8t49 26v349h94V69q7-7 20-12t34-5h36l3-2v-6q-12-21-36-37t-60-17q-37 0-58 20t-29 53h-8q-31-37-61-55t-66-18z"/><glyph unicode="¶" glyph-name="uni00B6" horiz-adv-x="501" d="M266-110v469h-43q-54 0-96 20t-67 55-25 80q0 76 47 111t125 35h110v-770h-51zm110 0v770h133v-16l-81-40v-714h-52z"/><glyph unicode="·" glyph-name="uni00B7" horiz-adv-x="250" d="M125 207q-26 0-45 19t-19 45q0 26 19 45t45 19q26 0 45-19t19-45q0-26-19-45t-45-19z"/><glyph unicode="¸" glyph-name="uni00B8" horiz-adv-x="500" d="M242-240q-55 0-83 29v13h3q27-12 62-12 29 0 41 11t13 28q0 22-20 36t-80 32l57 124h36l-34-73q58-18 81-40t23-61q0-37-26-62t-73-25z"/><glyph unicode="¹" glyph-name="uni00B9" horiz-adv-x="275" d="M62 505v15l56 21v283L15 773v29l143 88h42V541l50-21v-15H62z"/><glyph unicode="º" glyph-name="uni00BA" horiz-adv-x="403" d="M202 417q-57 0-92 36t-35 90q0 52 35 89t92 37q56 0 91-37t35-89q0-53-35-89t-91-37zm5 25q23 0 34 25t12 65q0 50-15 81t-41 31q-23 0-35-26t-12-64q0-50 15-81t42-31zM85 292v50h234v-50H85z"/><glyph unicode="»" glyph-name="uni00BB" horiz-adv-x="439" d="M21 70l111 177L21 424h13l200-177L34 70H21zm183 0l111 177-111 177h13l200-177L217 70h-13z"/><glyph unicode="¼" glyph-name="uni00BC" horiz-adv-x="760" d="M62 355v15l56 21v283L15 623v29l143 88h42V391l50-21v-15H62zm8-340l467 735 38-25L109-10 70 15zM509 0v15l55 23v66H399v15l199 266h49V145h70v-41h-70V38l49-23V0H509zm-51 145h106v145L458 145z"/><glyph unicode="½" glyph-name="uni00BD" horiz-adv-x="760" d="M62 355v15l56 21v283L15 623v29l143 88h42V391l50-21v-15H62zm8-340l467 735 38-25L109-10 70 15zM431 0v21q58 65 92 108t52 73 23 51 6 43q0 28-14 47t-43 20q-26 0-42-18t-16-49v-28l-4-5h-41q-10 0-15 4t-5 19q0 38 45 73 20 16 42 26t62 10q55 0 86-29t32-77q0-23-7-43t-27-44-59-58-102-88h167l28 59h15L700 0H431z"/><glyph unicode="¾" glyph-name="uni00BE" horiz-adv-x="760" d="M156 345q-58 0-98 27-16 11-27 24t-11 28q0 16 5 19t17 4h39l5-6v-14q0-25 17-38t45-13q35 0 52 21t17 56q0 41-20 63t-74 22H90v29h14q42 0 67 22t26 65q0 29-13 46t-41 18q-22 0-35-13t-14-40v-24l-5-5H50q-10 0-15 4t-6 21q0 32 38 57 24 16 45 24t53 8q54 0 87-25t33-68q0-36-29-60t-75-34q124-13 124-103 0-49-42-82t-107-33zM120 15l467 735 38-25L159-10l-39 25zM534 0v15l55 23v66H424v15l199 266h49V145h70v-41h-70V38l49-23V0H534zm-51 145h106v145L483 145z"/><glyph unicode="¿" glyph-name="uni00BF" horiz-adv-x="479" d="M269 333q-25 0-44 19t-20 45q0 25 19 44t45 20q26 0 45-19t19-45q0-25-19-44t-45-20zm-36-547q-53 0-94 24t-65 64-23 89q0 66 46 118t151 94l9 77h23l28-148q-76-23-117-58t-41-86q0-67 32-98t78-31q40 0 63 27t24 80v39l8 10h49q19 0 28-6t9-33q0-28-15-55t-46-48q-34-25-66-42t-81-17z"/><glyph unicode="À" glyph-name="uni00C0" horiz-adv-x="756" d="M30 0v16l63 33 257 616h55L659 52l67-36V0H462v16l88 35-74 180H235L162 50l84-34V0H30zm228 286h196l-98 241-98-241zm113 424l-126 88q-23 16-29 32t-6 32h89l86-152h-14z"/><glyph unicode="Á" glyph-name="uni00C1" horiz-adv-x="756" d="M30 0v16l63 33 257 616h55L659 52l67-36V0H462v16l88 35-74 180H235L162 50l84-34V0H30zm228 286h196l-98 241-98-241zm114 424l86 152h89q0-16-6-32t-29-32l-126-88h-14z"/><glyph unicode="Â" glyph-name="uni00C2" horiz-adv-x="756" d="M30 0v16l63 33 257 616h55L659 52l67-36V0H462v16l88 35-74 180H235L162 50l84-34V0H30zm228 286h196l-98 241-98-241zm-30 424l133 152h34l133-152h-14l-136 73-136-73h-14z"/><glyph unicode="Ã" glyph-name="uni00C3" horiz-adv-x="756" d="M30 0v16l63 33 257 616h55L659 52l67-36V0H462v16l88 35-74 180H235L162 50l84-34V0H30zm228 286h196l-98 241-98-241zm-35 439q17 50 31 75t30 33 36 9q27 0 49-13t44-26 44-13q19 0 33 10t28 42h15q-16-50-31-75t-30-33-36-9q-27 0-49 13t-44 26-44 13q-19 0-33-10t-28-42h-15z"/><glyph unicode="Ä" glyph-name="uni00C4" horiz-adv-x="756" d="M30 0v16l63 33 257 616h55L659 52l67-36V0H462v16l88 35-74 180H235L162 50l84-34V0H30zm228 286h196l-98 241-98-241zm26 449q-22 0-36 14t-15 37q0 22 14 36t37 15q22 0 36-14t15-37q0-22-14-36t-37-15zm188 0q-22 0-37 14t-15 37q0 22 15 36t37 15q22 0 36-14t15-37q0-22-14-36t-37-15z"/><glyph unicode="Å" glyph-name="uni00C5" horiz-adv-x="756" d="M30 0v16l63 33 257 616h55L659 52l67-36V0H462v16l88 35-74 180H235L162 50l84-34V0H30zm228 286h196l-98 241-98-241zm120 424q-38 0-62 23t-25 60q0 36 24 60t63 24q39 0 63-24t24-60q0-36-24-59t-63-24zm5 24q32 0 32 53 0 66-41 66-16 0-23-12t-8-41q0-66 40-66z"/><glyph unicode="Æ" glyph-name="uni00C6" horiz-adv-x="993" d="M464 660h432V488h-16l-64 117H580V368h166l51 84h16V231h-16l-51 82H580V55h263l65 132h16V0H394v16l81 40v178H271L161 50l80-34V0H25v16l64 34 375 610zM304 289h171v286L304 289z"/><glyph unicode="Ç" glyph-name="uni00C7" horiz-adv-x="722" d="M381-210q29 0 41 11t13 28q0 22-20 36t-80 32l43 94q-97 4-167 47T103 152 65 313q0 72 28 136t76 114 112 78 134 29q51 0 86-6t62-17 56-25l6-178h-18l-69 130q-34 24-61 35t-62 11q-69 0-124-36t-86-99-32-147q0-93 30-159t83-102 115-35q52 0 87 14t64 33l67 112h17L624 40q-42-22-89-35T414-10l-20-42q58-18 81-40t23-61q0-37-26-62t-73-25q-55 0-83 29v13h4q26-12 61-12z"/><glyph unicode="È" glyph-name="uni00C8" horiz-adv-x="659" d="M60 0v16l81 40v548l-81 40v16h502V488h-16l-65 117H246V368h166l51 84h16V231h-16l-51 82H246V55h262l66 132h16V0H60zm272 710l-126 88q-23 16-29 32t-6 32h89l86-152h-14z"/><glyph unicode="É" glyph-name="uni00C9" horiz-adv-x="659" d="M60 0v16l81 40v548l-81 40v16h502V488h-16l-65 117H246V368h166l51 84h16V231h-16l-51 82H246V55h262l66 132h16V0H60zm273 710l86 152h89q0-16-6-32t-29-32l-126-88h-14z"/><glyph unicode="Ê" glyph-name="uni00CA" horiz-adv-x="659" d="M60 0v16l81 40v548l-81 40v16h502V488h-16l-65 117H246V368h166l51 84h16V231h-16l-51 82H246V55h262l66 132h16V0H60zm129 710l133 152h34l133-152h-14l-136 73-136-73h-14z"/><glyph unicode="Ë" glyph-name="uni00CB" horiz-adv-x="659" d="M60 0v16l81 40v548l-81 40v16h502V488h-16l-65 117H246V368h166l51 84h16V231h-16l-51 82H246V55h262l66 132h16V0H60zm186 735q-22 0-36 14t-15 37q0 22 14 36t37 15q22 0 36-14t15-37q0-22-14-36t-37-15zm188 0q-22 0-37 14t-15 37q0 22 15 36t37 15q22 0 36-14t15-37q0-22-14-36t-37-15z"/><glyph unicode="Ì" glyph-name="uni00CC" horiz-adv-x="395" d="M64 0v16l82 40v548l-82 40v16h267v-16l-81-40V56l81-40V0H64zm126 710L64 798q-23 16-29 32t-6 32h89l86-152h-14z"/><glyph unicode="Í" glyph-name="uni00CD" horiz-adv-x="395" d="M64 0v16l82 40v548l-82 40v16h267v-16l-81-40V56l81-40V0H64zm127 710l86 152h89q0-16-6-32t-29-32l-126-88h-14z"/><glyph unicode="Î" glyph-name="uni00CE" horiz-adv-x="395" d="M64 0v16l82 40v548l-82 40v16h267v-16l-81-40V56l81-40V0H64zM48 710l133 152h34l133-152h-14l-136 73-136-73H48z"/><glyph unicode="Ï" glyph-name="uni00CF" horiz-adv-x="395" d="M64 0v16l82 40v548l-82 40v16h267v-16l-81-40V56l81-40V0H64zm40 735q-22 0-36 14t-15 37q0 22 14 36t37 15q22 0 36-14t15-37q0-22-14-36t-37-15zm188 0q-22 0-37 14t-15 37q0 22 15 36t37 15q22 0 36-14t15-37q0-22-14-36t-37-15z"/><glyph unicode="Ð" glyph-name="uni00D0" horiz-adv-x="781" d="M60 0v16l81 40v261H60v50h81v237l-81 40v16h304q112 0 191-39t120-107 42-154q0-78-27-144t-75-114-114-75T357 0H60zm355 317H246V55h106q80 0 137 33t88 95 31 146q0 83-31 145t-92 97-148 34h-91V367h169v-50z"/><glyph unicode="Ñ" glyph-name="uni00D1" horiz-adv-x="803" d="M56 0v16l81 40v546l-80 42v16h157l383-471v416l-103 39v16h253v-16l-80-39V-5h-43L207 507V55l103-39V0H56zm200 725q17 50 31 75t30 33 36 9q27 0 49-13t44-26 44-13q19 0 33 10t28 42h15q-16-50-31-75t-30-33-36-9q-27 0-49 13t-44 26-44 13q-19 0-33-10t-28-42h-15z"/><glyph unicode="Ò" glyph-name="uni00D2" horiz-adv-x="803" d="M401-10q-72 0-133 25T161 86 90 194 65 330q0 74 25 136t70 107 107 71 134 26q72 0 133-25t107-71 71-108 26-136q0-74-25-136T642 87 535 16 401-10zm20 50q61 0 107 32t72 90 26 137q0 97-32 169t-87 113-122 40q-61 0-108-31t-73-90-27-137q0-97 32-170t88-113 124-40zm-38 670l-126 88q-23 16-29 32t-6 32h89l86-152h-14z"/><glyph unicode="Ó" glyph-name="uni00D3" horiz-adv-x="803" d="M401-10q-72 0-133 25T161 86 90 194 65 330q0 74 25 136t70 107 107 71 134 26q72 0 133-25t107-71 71-108 26-136q0-74-25-136T642 87 535 16 401-10zm20 50q61 0 107 32t72 90 26 137q0 97-32 169t-87 113-122 40q-61 0-108-31t-73-90-27-137q0-97 32-170t88-113 124-40zm-37 670l86 152h89q0-16-6-32t-29-32l-126-88h-14z"/><glyph unicode="Ô" glyph-name="uni00D4" horiz-adv-x="803" d="M401-10q-72 0-133 25T161 86 90 194 65 330q0 74 25 136t70 107 107 71 134 26q72 0 133-25t107-71 71-108 26-136q0-74-25-136T642 87 535 16 401-10zm20 50q61 0 107 32t72 90 26 137q0 97-32 169t-87 113-122 40q-61 0-108-31t-73-90-27-137q0-97 32-170t88-113 124-40zM241 710l133 152h34l133-152h-14l-136 73-136-73h-14z"/><glyph unicode="Õ" glyph-name="uni00D5" horiz-adv-x="803" d="M401-10q-72 0-133 25T161 86 90 194 65 330q0 74 25 136t70 107 107 71 134 26q72 0 133-25t107-71 71-108 26-136q0-74-25-136T642 87 535 16 401-10zm20 50q61 0 107 32t72 90 26 137q0 97-32 169t-87 113-122 40q-61 0-108-31t-73-90-27-137q0-97 32-170t88-113 124-40zM236 725q17 50 31 75t30 33 36 9q27 0 49-13t44-26 44-13q19 0 33 10t28 42h15q-16-50-31-75t-30-33-36-9q-27 0-49 13t-44 26-44 13q-19 0-33-10t-28-42h-15z"/><glyph unicode="Ö" glyph-name="uni00D6" horiz-adv-x="803" d="M401-10q-72 0-133 25T161 86 90 194 65 330q0 74 25 136t70 107 107 71 134 26q72 0 133-25t107-71 71-108 26-136q0-74-25-136T642 87 535 16 401-10zm20 50q61 0 107 32t72 90 26 137q0 97-32 169t-87 113-122 40q-61 0-108-31t-73-90-27-137q0-97 32-170t88-113 124-40zM297 735q-22 0-36 14t-15 37q0 22 14 36t37 15q22 0 36-14t15-37q0-22-14-36t-37-15zm188 0q-22 0-37 14t-15 37q0 22 15 36t37 15q22 0 36-14t15-37q0-22-14-36t-37-15z"/><glyph unicode="×" glyph-name="uni00D7" horiz-adv-x="514" d="M110 87l-37 38 147 147L73 419l37 38 148-147 147 147 37-38-147-147 147-147-37-38-147 147L110 87z"/><glyph unicode="Ø" glyph-name="uni00D8" horiz-adv-x="803" d="M65-10l90 102q-42 45-66 106T65 330q0 74 25 136t70 107 107 71 134 26q60 0 112-17t95-50l59 67h71l-91-102q43-45 67-106t24-132q0-74-25-136T642 87 535 16 401-10q-59 0-111 17t-95 50l-59-67H65zm112 373q0-58 12-107t33-88l329 371q-32 39-74 60t-92 22q-61 0-108-31t-73-90-27-137zM421 40q61 0 107 32t72 90 26 137q0 57-11 106t-33 88L253 122q33-39 76-60t92-22z"/><glyph unicode="Ù" glyph-name="uni00D9" horiz-adv-x="816" d="M409-10q-77 0-138 28t-95 88-35 157v341l-81 40v16h267v-16l-81-40V274q0-83 26-131t70-70 99-21q44 0 81 18t60 60 23 109v367l-98 38v16h249v-16l-81-39V263q0-97-34-157t-95-88-137-28zm8 720l-126 88q-23 16-29 32t-6 32h89l86-152h-14z"/><glyph unicode="Ú" glyph-name="uni00DA" horiz-adv-x="816" d="M409-10q-77 0-138 28t-95 88-35 157v341l-81 40v16h267v-16l-81-40V274q0-83 26-131t70-70 99-21q44 0 81 18t60 60 23 109v367l-98 38v16h249v-16l-81-39V263q0-97-34-157t-95-88-137-28zm9 720l86 152h89q0-16-6-32t-29-32l-126-88h-14z"/><glyph unicode="Û" glyph-name="uni00DB" horiz-adv-x="816" d="M409-10q-77 0-138 28t-95 88-35 157v341l-81 40v16h267v-16l-81-40V274q0-83 26-131t70-70 99-21q44 0 81 18t60 60 23 109v367l-98 38v16h249v-16l-81-39V263q0-97-34-157t-95-88-137-28zM275 710l133 152h34l133-152h-14l-136 73-136-73h-14z"/><glyph unicode="Ü" glyph-name="uni00DC" horiz-adv-x="816" d="M409-10q-77 0-138 28t-95 88-35 157v341l-81 40v16h267v-16l-81-40V274q0-83 26-131t70-70 99-21q44 0 81 18t60 60 23 109v367l-98 38v16h249v-16l-81-39V263q0-97-34-157t-95-88-137-28zm-78 745q-22 0-36 14t-15 37q0 22 14 36t37 15q22 0 36-14t15-37q0-22-14-36t-37-15zm188 0q-22 0-37 14t-15 37q0 22 15 36t37 15q22 0 36-14t15-37q0-22-14-36t-37-15z"/><glyph unicode="Ý" glyph-name="uni00DD" horiz-adv-x="727" d="M225 0v16l90 40v252L94 609l-63 35v16h258v-16l-73-36v-4l177-241 160 240v4l-74 37v16h216v-16l-65-33-211-302V56l90-40V0H225zm152 710l86 152h89q0-16-6-32t-29-32l-126-88h-14z"/><glyph unicode="Þ" glyph-name="uni00DE" horiz-adv-x="649" d="M60 0v16l81 40v548l-81 40v16h267v-16l-81-40v-66h94q118 0 189-43t72-136q0-55-37-97t-102-67-146-25h-70V56l81-40V0H60zm255 483h-69V223h76q79 0 124 36t45 92q0 70-45 101t-131 31z"/><glyph unicode="ß" glyph-name="uni00DF" horiz-adv-x="619" d="M59 0v16l63 32v356H44v47h78v29q0 51 16 99t48 87 75 61 102 23q83 0 127-38t45-90q0-32-13-56t-32-46-38-43-33-45-13-54q0-21 11-36t34-31 56-43q51-39 70-69t20-72q0-38-21-69T519 9t-77-19q-46 0-80 8t-69 27v112h14l33-54q15-25 38-40t56-15q37 0 60 19t23 54q0 27-14 46t-40 37-56 40q-34 23-58 49t-24 74q0 29 12 50t31 41 36 42 30 53 13 72q0 43-27 73t-81 30q-67 0-94-43t-28-115V0H59z"/><glyph unicode="à" glyph-name="uni00E0" horiz-adv-x="495" d="M155-10q-48 0-79 28T44 97q0 49 35 84t124 57l95 22v70q0 36-26 60t-62 24q-37 0-51-19t-15-52v-32l-5-5H84q-15 0-20 5t-6 24q0 22 13 44t42 40q30 19 61 30t66 12q38 0 73-10t58-36 22-67V69q7-7 19-12t35-5h35l4-2v-6q-12-21-36-37t-60-17q-34 0-55 16t-30 46h-7q-26-26-63-44t-80-18zm-20 129q0-62 73-62 22 0 42 4t48 16v148q-72-14-107-30t-45-34-11-42zm88 411L97 643q-21 18-28 33t-7 31h89l86-177h-14z"/><glyph unicode="á" glyph-name="uni00E1" horiz-adv-x="495" d="M155-10q-48 0-79 28T44 97q0 49 35 84t124 57l95 22v70q0 36-26 60t-62 24q-37 0-51-19t-15-52v-32l-5-5H84q-15 0-20 5t-6 24q0 22 13 44t42 40q30 19 61 30t66 12q38 0 73-10t58-36 22-67V69q7-7 19-12t35-5h35l4-2v-6q-12-21-36-37t-60-17q-34 0-55 16t-30 46h-7q-26-26-63-44t-80-18zm-20 129q0-62 73-62 22 0 42 4t48 16v148q-72-14-107-30t-45-34-11-42zm92 411l86 177h89q0-16-7-31t-28-33L241 530h-14z"/><glyph unicode="â" glyph-name="uni00E2" horiz-adv-x="495" d="M155-10q-48 0-79 28T44 97q0 49 35 84t124 57l95 22v70q0 36-26 60t-62 24q-37 0-51-19t-15-52v-32l-5-5H84q-15 0-20 5t-6 24q0 22 13 44t42 40q30 19 61 30t66 12q38 0 73-10t58-36 22-67V69q7-7 19-12t35-5h35l4-2v-6q-12-21-36-37t-60-17q-34 0-55 16t-30 46h-7q-26-26-63-44t-80-18zm-20 129q0-62 73-62 22 0 42 4t48 16v148q-72-14-107-30t-45-34-11-42zM80 530l133 177h34l133-177h-14l-136 92-136-92H80z"/><glyph unicode="ã" glyph-name="uni00E3" horiz-adv-x="495" d="M155-10q-48 0-79 28T44 97q0 49 35 84t124 57l95 22v70q0 36-26 60t-62 24q-37 0-51-19t-15-52v-32l-5-5H84q-15 0-20 5t-6 24q0 22 13 44t42 40q30 19 61 30t66 12q38 0 73-10t58-36 22-67V69q7-7 19-12t35-5h35l4-2v-6q-12-21-36-37t-60-17q-34 0-55 16t-30 46h-7q-26-26-63-44t-80-18zm-20 129q0-62 73-62 22 0 42 4t48 16v148q-72-14-107-30t-45-34-11-42zM75 555q18 55 33 82t30 35 35 9q20 0 37-9t34-23 32-22 32-10q20 0 33 13t29 51h15q-18-55-33-82t-30-35-35-9q-20 0-37 9t-34 23-32 22-32 10q-20 0-33-13t-29-51H75z"/><glyph unicode="ä" glyph-name="uni00E4" horiz-adv-x="495" d="M155-10q-48 0-79 28T44 97q0 49 35 84t124 57l95 22v70q0 36-26 60t-62 24q-37 0-51-19t-15-52v-32l-5-5H84q-15 0-20 5t-6 24q0 22 13 44t42 40q30 19 61 30t66 12q38 0 73-10t58-36 22-67V69q7-7 19-12t35-5h35l4-2v-6q-12-21-36-37t-60-17q-34 0-55 16t-30 46h-7q-26-26-63-44t-80-18zm-20 129q0-62 73-62 22 0 42 4t48 16v148q-72-14-107-30t-45-34-11-42zm1 447q-22 0-36 14t-15 37q0 22 14 36t37 15q22 0 36-14t15-37q0-22-14-36t-37-15zm188 0q-22 0-37 14t-15 37q0 22 15 36t37 15q22 0 36-14t15-37q0-22-14-36t-37-15z"/><glyph unicode="å" glyph-name="uni00E5" horiz-adv-x="495" d="M155-10q-48 0-79 28T44 97q0 49 35 84t124 57l95 22v70q0 36-26 60t-62 24q-37 0-51-19t-15-52v-32l-5-5H84q-15 0-20 5t-6 24q0 22 13 44t42 40q30 19 61 30t66 12q38 0 73-10t58-36 22-67V69q7-7 19-12t35-5h35l4-2v-6q-12-21-36-37t-60-17q-34 0-55 16t-30 46h-7q-26-26-63-44t-80-18zm-20 129q0-62 73-62 22 0 42 4t48 16v148q-72-14-107-30t-45-34-11-42zm95 582q39 0 63-24t24-59q0-36-24-59t-63-24q-38 0-62 23t-25 60q0 35 24 59t63 24zm-4-24q-16 0-23-12t-8-40q0-66 40-66 32 0 32 52 0 66-41 66z"/><glyph unicode="æ" glyph-name="uni00E6" horiz-adv-x="740" d="M156-10q-48 0-79 28T45 97q0 49 35 84t124 57l95 22v70q0 36-26 60t-62 24q-37 0-51-19t-15-52v-32l-5-5H85q-15 0-20 5t-6 24q0 22 13 44t42 40q30 19 61 30t66 12q42 0 81-13t57-46q29 28 65 43t77 16q79 0 124-54t46-157l-4-5H392q1-46 17-85t53-63 99-24q28 0 60 9t68 29h3V99q-23-46-70-77T512-10q-58 0-102 21t-72 61h-6q-28-34-73-58T156-10zm347 427q-45 0-73-33t-36-93h213q-11 68-37 97t-67 29zM135 119q0-31 19-46t54-16q32 0 60 9t58 25q-27 49-27 116v18q-72-14-107-30t-46-34-11-42z"/><glyph unicode="ç" glyph-name="uni00E7" horiz-adv-x="480" d="M244-210q29 0 41 11t13 28q0 22-21 36t-80 32l44 94Q151-4 99 54T47 206q0 74 30 132t84 90 121 33q42 0 80-13t58-36q15-18 15-30 0-8-2-12t-10-12l-41-33h-7l-33 45q-16 22-37 34t-53 13q-53 0-83-44t-30-121q0-47 15-88t52-66 100-25q28 0 60 9t68 29h3V99q-21-42-63-72T276-9l-19-43q57-18 80-40t23-61q0-37-25-62t-74-25q-56 0-82 29v13h3q14-6 28-9t34-3z"/><glyph unicode="è" glyph-name="uni00E8" horiz-adv-x="487" d="M259-10q-98 0-155 59T47 206q0 74 30 132t81 90 110 33q80 0 125-54t46-157l-5-5H139q1-46 17-85t53-63 99-24q57 0 129 38h3V99q-24-46-71-77T259-10zm-9 427q-44 0-72-33t-37-93h213q-10 68-36 97t-68 29zm5 113L129 643q-21 18-28 33t-7 31h89l86-177h-14z"/><glyph unicode="é" glyph-name="uni00E9" horiz-adv-x="487" d="M259-10q-98 0-155 59T47 206q0 74 30 132t81 90 110 33q80 0 125-54t46-157l-5-5H139q1-46 17-85t53-63 99-24q57 0 129 38h3V99q-24-46-71-77T259-10zm-9 427q-44 0-72-33t-37-93h213q-10 68-36 97t-68 29zm9 113l86 177h89q0-16-7-31t-28-33L273 530h-14z"/><glyph unicode="ê" glyph-name="uni00EA" horiz-adv-x="487" d="M259-10q-98 0-155 59T47 206q0 74 30 132t81 90 110 33q80 0 125-54t46-157l-5-5H139q1-46 17-85t53-63 99-24q57 0 129 38h3V99q-24-46-71-77T259-10zm-9 427q-44 0-72-33t-37-93h213q-10 68-36 97t-68 29zM111 530l133 177h34l133-177h-14l-136 92-136-92h-14z"/><glyph unicode="ë" glyph-name="uni00EB" horiz-adv-x="487" d="M259-10q-98 0-155 59T47 206q0 74 30 132t81 90 110 33q80 0 125-54t46-157l-5-5H139q1-46 17-85t53-63 99-24q57 0 129 38h3V99q-24-46-71-77T259-10zm-9 427q-44 0-72-33t-37-93h213q-10 68-36 97t-68 29zm-83 149q-22 0-36 14t-15 37q0 22 14 36t37 15q22 0 36-14t15-37q0-22-14-36t-37-15zm188 0q-22 0-37 14t-15 37q0 22 15 36t37 15q22 0 36-14t15-37q0-22-14-36t-37-15z"/><glyph unicode="ì" glyph-name="uni00EC" horiz-adv-x="318" d="M49 0v16l64 32v299l-61 51v8l148 55h7V48l62-32V0H49zm104 530L27 643Q6 661-1 676t-7 31h89l86-177h-14z"/><glyph unicode="í" glyph-name="uni00ED" horiz-adv-x="318" d="M49 0v16l64 32v299l-61 51v8l148 55h7V48l62-32V0H49zm108 530l86 177h89q0-16-7-31t-28-33L171 530h-14z"/><glyph unicode="î" glyph-name="uni00EE" horiz-adv-x="318" d="M49 0v16l64 32v299l-61 51v8l148 55h7V48l62-32V0H49zM9 530l133 177h34l133-177h-14l-136 92-136-92H9z"/><glyph unicode="ï" glyph-name="uni00EF" horiz-adv-x="318" d="M49 0v16l64 32v299l-61 51v8l148 55h7V48l62-32V0H49zm16 566q-22 0-36 14t-15 37q0 22 14 36t37 15q22 0 36-14t15-37q0-22-14-36t-37-15zm188 0q-22 0-37 14t-15 37q0 22 15 36t37 15q22 0 36-14t15-37q0-22-14-36t-37-15z"/><glyph unicode="ð" glyph-name="uni00F0" horiz-adv-x="547" d="M271-10q-67 0-117 30t-79 82-29 115q0 79 33 133t87 83 120 28q24 0 43-2t35-6q-28 83-83 145l-77-75h-70l113 109q-61 53-142 82v35q99-29 177-83l78 75h70L322 637q84-70 131-167t47-210q0-79-29-140t-80-95-120-35zM149 227q0-45 14-89t42-74 75-30q47 0 80 55t34 176q0 48-7 92-24 27-50 41t-61 14q-36 0-64-17t-46-58-17-110z"/><glyph unicode="ñ" glyph-name="uni00F1" horiz-adv-x="590" d="M44 0v16l64 32v299l-61 50v8l138 56h7l9-74h5q38 37 73 55t79 19q58 0 96-29t39-89V48l63-32V0H332v16l66 32v249q0 43-26 64t-67 22q-25 0-55-8t-48-25V48l66-32V0H44zm101 555q18 55 33 82t30 35 35 9q20 0 37-9t34-23 32-22 32-10q20 0 33 13t29 51h15q-18-55-33-82t-30-35-35-9q-20 0-37 9t-34 23-32 22-32 10q-20 0-33-13t-29-51h-15z"/><glyph unicode="ò" glyph-name="uni00F2" horiz-adv-x="542" d="M271-10q-67 0-117 31t-79 85-29 120q0 66 28 119t79 85 118 31q67 0 117-31t78-84 29-120q0-66-28-119t-79-85-117-32zm13 44q38 0 62 25t35 64 11 83q0 53-13 101t-43 80-76 31q-38 0-63-24t-36-64-12-83q0-53 14-102t44-80 77-31zm-22 496L136 643q-21 18-28 33t-7 31h89l86-177h-14z"/><glyph unicode="ó" glyph-name="uni00F3" horiz-adv-x="542" d="M271-10q-67 0-117 31t-79 85-29 120q0 66 28 119t79 85 118 31q67 0 117-31t78-84 29-120q0-66-28-119t-79-85-117-32zm13 44q38 0 62 25t35 64 11 83q0 53-13 101t-43 80-76 31q-38 0-63-24t-36-64-12-83q0-53 14-102t44-80 77-31zm-18 496l86 177h89q0-16-7-31t-28-33L280 530h-14z"/><glyph unicode="ô" glyph-name="uni00F4" horiz-adv-x="542" d="M271-10q-67 0-117 31t-79 85-29 120q0 66 28 119t79 85 118 31q67 0 117-31t78-84 29-120q0-66-28-119t-79-85-117-32zm13 44q38 0 62 25t35 64 11 83q0 53-13 101t-43 80-76 31q-38 0-63-24t-36-64-12-83q0-53 14-102t44-80 77-31zM118 530l133 177h34l133-177h-14l-136 92-136-92h-14z"/><glyph unicode="õ" glyph-name="uni00F5" horiz-adv-x="542" d="M271-10q-67 0-117 31t-79 85-29 120q0 66 28 119t79 85 118 31q67 0 117-31t78-84 29-120q0-66-28-119t-79-85-117-32zm13 44q38 0 62 25t35 64 11 83q0 53-13 101t-43 80-76 31q-38 0-63-24t-36-64-12-83q0-53 14-102t44-80 77-31zM113 555q18 55 33 82t30 35 35 9q20 0 37-9t34-23 32-22 32-10q20 0 33 13t29 51h15q-18-55-33-82t-30-35-35-9q-20 0-37 9t-34 23-32 22-32 10q-20 0-33-13t-29-51h-15z"/><glyph unicode="ö" glyph-name="uni00F6" horiz-adv-x="542" d="M271-10q-67 0-117 31t-79 85-29 120q0 66 28 119t79 85 118 31q67 0 117-31t78-84 29-120q0-66-28-119t-79-85-117-32zm13 44q38 0 62 25t35 64 11 83q0 53-13 101t-43 80-76 31q-38 0-63-24t-36-64-12-83q0-53 14-102t44-80 77-31zM174 566q-22 0-36 14t-15 37q0 22 14 36t37 15q22 0 36-14t15-37q0-22-14-36t-37-15zm188 0q-22 0-37 14t-15 37q0 22 15 36t37 15q22 0 36-14t15-37q0-22-14-36t-37-15z"/><glyph unicode="÷" glyph-name="uni00F7" horiz-adv-x="514" d="M224 417v65h66v-65h-66zM47 246v52h420v-52H47zM224 62v65h66V62h-66z"/><glyph unicode="ø" glyph-name="uni00F8" horiz-adv-x="542" d="M46-10l59 72q-28 32-43 74t-16 90q0 66 28 119t79 85 118 31q37 0 69-10t58-28l31 38h66l-58-72q27-31 42-73t16-90q0-66-28-119t-79-85-117-32q-37 0-69 10t-58 28l-31-38H46zm103 257q0-29 4-57t12-53l187 230q-16 23-38 37t-54 14q-38 0-63-24t-36-64-12-83zM284 34q38 0 62 25t35 64 11 83q0 28-4 56t-11 53L190 85q17-23 40-37t54-14z"/><glyph unicode="ù" glyph-name="uni00F9" horiz-adv-x="568" d="M223-10q-59 0-96 30t-38 88v296l-64 31v16h158V154q0-42 25-64t67-22q25 0 55 8t48 26v302l-68 31v16h163V45l69-29V0H378v63h-5q-37-37-72-55t-78-18zm46 540L143 643q-21 18-28 33t-7 31h89l86-177h-14z"/><glyph unicode="ú" glyph-name="uni00FA" horiz-adv-x="568" d="M223-10q-59 0-96 30t-38 88v296l-64 31v16h158V154q0-42 25-64t67-22q25 0 55 8t48 26v302l-68 31v16h163V45l69-29V0H378v63h-5q-37-37-72-55t-78-18zm50 540l86 177h89q0-16-7-31t-28-33L287 530h-14z"/><glyph unicode="û" glyph-name="uni00FB" horiz-adv-x="568" d="M223-10q-59 0-96 30t-38 88v296l-64 31v16h158V154q0-42 25-64t67-22q25 0 55 8t48 26v302l-68 31v16h163V45l69-29V0H378v63h-5q-37-37-72-55t-78-18zm-97 540l133 177h34l133-177h-14l-136 92-136-92h-14z"/><glyph unicode="ü" glyph-name="uni00FC" horiz-adv-x="568" d="M223-10q-59 0-96 30t-38 88v296l-64 31v16h158V154q0-42 25-64t67-22q25 0 55 8t48 26v302l-68 31v16h163V45l69-29V0H378v63h-5q-37-37-72-55t-78-18zm-41 576q-22 0-36 14t-15 37q0 22 14 36t37 15q22 0 36-14t15-37q0-22-14-36t-37-15zm188 0q-22 0-37 14t-15 37q0 22 15 36t37 15q22 0 36-14t15-37q0-22-14-36t-37-15z"/><glyph unicode="ý" glyph-name="uni00FD" horiz-adv-x="479" d="M83-241q-23 0-28 6t-6 23v54l4 5h46q25 0 39 4t26 21 30 59l33 75L40 405l-66 30v16h248v-16l-78-30v-5l128-276h4l105 271v5l-71 35v16h195v-16l-74-33L233-79q-9-23-15-38t-15-30-23-36q-20-29-46-43t-51-15zm182 771l86 177h89q0-16-7-31t-28-33L279 530h-14z"/><glyph unicode="þ" glyph-name="uni00FE" horiz-adv-x="572" d="M44-230v16l64 32v818l-61 51v8l139 55h16V401h6q38 32 72 46t75 14q49 0 88-26t62-73 23-115q0-81-31-138t-83-88-115-31q-54 0-97 10v-182l73-32v-16H44zm250 619q-48 0-92-27V78q26-22 54-30t64-9q30 0 56 17t41 55 16 104q0 61-19 99t-50 56-70 19z"/><glyph unicode="ÿ" glyph-name="uni00FF" horiz-adv-x="479" d="M83-241q-23 0-28 6t-6 23v54l4 5h46q25 0 39 4t26 21 30 59l33 75L40 405l-66 30v16h248v-16l-78-30v-5l128-276h4l105 271v5l-71 35v16h195v-16l-74-33L233-79q-9-23-15-38t-15-30-23-36q-20-29-46-43t-51-15zm91 807q-22 0-36 14t-15 37q0 22 14 36t37 15q22 0 36-14t15-37q0-22-14-36t-37-15zm188 0q-22 0-37 14t-15 37q0 22 15 36t37 15q22 0 36-14t15-37q0-22-14-36t-37-15z"/><glyph unicode="–" glyph-name="uni2013" horiz-adv-x="500" d="M49 247v50h402v-50H49z"/><glyph unicode="—" glyph-name="uni2014" horiz-adv-x="1000" d="M49 247v50h902v-50H49z"/><glyph unicode="‘" glyph-name="uni2018" horiz-adv-x="248" d="M151 480q-10 0-27 7-37 22-55 49t-19 66q0 28 16 58t49 54 82 36v-22q-35-9-60-30t-26-50q0-18 9-34t41-33l35-18 1-12-22-49q-8-22-24-22z"/><glyph unicode="’" glyph-name="uni2019" horiz-adv-x="248" d="M52 480v22q34 10 60 31t26 50q0 18-9 34t-41 33l-36 18-1 12 22 49q8 21 24 21 5 0 11-1t16-6q37-21 56-48t19-66q0-25-15-55t-48-56-84-38z"/><glyph unicode="‚" glyph-name="uni201A" horiz-adv-x="248" d="M52-194v22q34 10 60 31t26 50q0 18-9 34T88-24L52-6 51 6l22 49q8 21 24 21 5 0 11-1t16-6q37-21 56-48t19-66q0-25-15-55t-48-56-84-38z"/><glyph unicode="“" glyph-name="uni201C" horiz-adv-x="447" d="M151 480q-10 0-27 7-37 22-55 49t-19 66q0 28 16 58t49 54 82 36v-22q-35-9-60-30t-26-50q0-18 9-34t41-33l35-18 1-12-22-49q-8-22-24-22zm199 0q-10 0-27 7-37 22-55 49t-19 66q0 28 16 58t49 54 82 36v-22q-35-9-60-30t-26-50q0-18 9-34t41-33l35-18 1-12-22-49q-8-22-24-22z"/><glyph unicode="”" glyph-name="uni201D" horiz-adv-x="447" d="M52 480v22q34 10 60 31t26 50q0 18-9 34t-41 33l-36 18-1 12 22 49q8 21 24 21 5 0 11-1t16-6q37-21 56-48t19-66q0-25-15-55t-48-56-84-38zm199 0v22q34 10 60 31t26 50q0 18-9 34t-41 33l-36 18-1 12 22 49q8 21 24 21 5 0 11-1t16-6q37-21 56-48t19-66q0-25-15-55t-48-56-84-38z"/><glyph unicode="„" glyph-name="uni201E" horiz-adv-x="447" d="M52-194v22q34 10 60 31t26 50q0 18-9 34T88-24L52-6 51 6l22 49q8 21 24 21 5 0 11-1t16-6q37-21 56-48t19-66q0-25-15-55t-48-56-84-38zm199 0v22q34 10 60 31t26 50q0 18-9 34t-41 33L251-6l-1 12 22 49q8 21 24 21 5 0 11-1t16-6q37-21 56-48t19-66q0-25-15-55t-48-56-84-38z"/><glyph unicode="•" glyph-name="uni2022" horiz-adv-x="500" d="M250 150q-53 0-87 35t-35 87q0 52 34 86t88 35q51 0 86-34t35-87q0-52-35-87t-86-35z"/><glyph unicode="‹" glyph-name="uni2039" horiz-adv-x="256" d="M221 70L21 247l200 177h13L124 247 234 70h-13z"/><glyph unicode="›" glyph-name="uni203A" horiz-adv-x="256" d="M21 70l111 177L21 424h13l200-177L34 70H21z"/></font>
</defs>
</svg>
